REM DIRINDEX 1\2,1\3,1\4,1\5
REM DIRNAME folder01,folder02,folder03,folder04,folder05
TITLE ""
FILE "1Q_t_0572-0581.mp3" MP3
  TRACK 01 AUDIO
    TITLE "3:cjc004_2618"
    INDEX 01 00:00:00
  TRACK 02 AUDIO
    TITLE "0:"
    INDEX 01 00:01:17
  TRACK 03 AUDIO
    TITLE "4:cjc004_2619"
    INDEX 01 00:01:48
  TRACK 04 AUDIO
    TITLE "0:"
    INDEX 01 00:03:64
  TRACK 05 AUDIO
    TITLE "5:cjc004_2620"
    INDEX 01 00:04:15
  TRACK 06 AUDIO
    TITLE "0:"
    INDEX 01 00:09:20
  TRACK 07 AUDIO
    TITLE "3:cjc004_2621"
    INDEX 01 00:10:00
  TRACK 08 AUDIO
    TITLE "0:"
    INDEX 01 00:11:03
  TRACK 09 AUDIO
    TITLE "4:cjc004_2622"
    INDEX 01 00:11:33
  TRACK 10 AUDIO
    TITLE "0:"
    INDEX 01 00:12:52
  TRACK 11 AUDIO
    TITLE "5:cjc004_2623"
    INDEX 01 00:13:04
  TRACK 12 AUDIO
    TITLE "0:"
    INDEX 01 00:17:51
  TRACK 13 AUDIO
    TITLE "3:cjc004_2624"
    INDEX 01 00:18:31
  TRACK 14 AUDIO
    TITLE "0:"
    INDEX 01 00:19:42
  TRACK 15 AUDIO
    TITLE "4:cjc004_2625"
    INDEX 01 00:19:73
  TRACK 16 AUDIO
    TITLE "0:"
    INDEX 01 00:21:21
  TRACK 17 AUDIO
    TITLE "5:cjc004_2626"
    INDEX 01 00:21:45
  TRACK 18 AUDIO
    TITLE "0:"
    INDEX 01 00:26:26
  TRACK 19 AUDIO
    TITLE "3:cjc004_2627"
    INDEX 01 00:27:00
  TRACK 20 AUDIO
    TITLE "0:"
    INDEX 01 00:28:23
  TRACK 21 AUDIO
    TITLE "4:cjc004_2628"
    INDEX 01 00:28:53
  TRACK 22 AUDIO
    TITLE "0:"
    INDEX 01 00:29:68
  TRACK 23 AUDIO
    TITLE "5:cjc004_2629"
    INDEX 01 00:30:20
  TRACK 24 AUDIO
    TITLE "0:"
    INDEX 01 00:34:71
  TRACK 25 AUDIO
    TITLE "3:cjc004_2630"
    INDEX 01 00:35:51
  TRACK 26 AUDIO
    TITLE "0:"
    INDEX 01 00:36:72
  TRACK 27 AUDIO
    TITLE "4:cjc004_2631"
    INDEX 01 00:37:32
  TRACK 28 AUDIO
    TITLE "0:"
    INDEX 01 00:38:63
  TRACK 29 AUDIO
    TITLE "5:cjc004_2632"
    INDEX 01 00:39:13
  TRACK 30 AUDIO
    TITLE "0:"
    INDEX 01 00:44:03
  TRACK 31 AUDIO
    TITLE "3:cjc004_2633"
    INDEX 01 00:44:56
  TRACK 32 AUDIO
    TITLE "0:"
    INDEX 01 00:45:73
  TRACK 33 AUDIO
    TITLE "4:cjc004_2634"
    INDEX 01 00:46:29
  TRACK 34 AUDIO
    TITLE "0:"
    INDEX 01 00:47:46
  TRACK 35 AUDIO
    TITLE "5:cjc004_2635"
    INDEX 01 00:47:74
  TRACK 36 AUDIO
    TITLE "0:"
    INDEX 01 00:52:37
  TRACK 37 AUDIO
    TITLE "3:cjc004_2636"
    INDEX 01 00:53:17
  TRACK 38 AUDIO
    TITLE "0:"
    INDEX 01 00:54:21
  TRACK 39 AUDIO
    TITLE "4:cjc004_2637"
    INDEX 01 00:54:54
  TRACK 40 AUDIO
    TITLE "0:"
    INDEX 01 00:56:10
  TRACK 41 AUDIO
    TITLE "5:cjc004_2638"
    INDEX 01 00:56:33
  TRACK 42 AUDIO
    TITLE "0:"
    INDEX 01 01:01:33
  TRACK 43 AUDIO
    TITLE "3:cjc004_2639"
    INDEX 01 01:02:08
  TRACK 44 AUDIO
    TITLE "0:"
    INDEX 01 01:03:14
  TRACK 45 AUDIO
    TITLE "4:cjc004_2640"
    INDEX 01 01:03:39
  TRACK 46 AUDIO
    TITLE "0:"
    INDEX 01 01:04:70
  TRACK 47 AUDIO
    TITLE "5:cjc004_2641"
    INDEX 01 01:05:21
  TRACK 48 AUDIO
    TITLE "0:"
    INDEX 01 01:11:11
  TRACK 49 AUDIO
    TITLE "3:cjc004_2642"
    INDEX 01 01:11:62
  TRACK 50 AUDIO
    TITLE "0:"
    INDEX 01 01:13:08
  TRACK 51 AUDIO
    TITLE "4:cjc004_2643"
    INDEX 01 01:13:36
  TRACK 52 AUDIO
    TITLE "0:"
    INDEX 01 01:14:43
  TRACK 53 AUDIO
    TITLE "5:cjc004_2644"
    INDEX 01 01:14:70
  TRACK 54 AUDIO
    TITLE "0:"
    INDEX 01 01:19:34
  TRACK 55 AUDIO
    TITLE "3:cjc004_2645"
    INDEX 01 01:20:10
  TRACK 56 AUDIO
    TITLE "0:"
    INDEX 01 01:21:43
  TRACK 57 AUDIO
    TITLE "4:cjc004_2646"
    INDEX 01 01:21:72
  TRACK 58 AUDIO
    TITLE "0:"
    INDEX 01 01:23:48
  TRACK 59 AUDIO
    TITLE "5:cjc004_2647"
    INDEX 01 01:24:00
  TRACK 60 AUDIO
    TITLE "0:"
    INDEX 01 01:28:16
